<svg fill="url(#bGrad)" xmlns="http://www.w3.org/2000/svg" viewBox="0 0 45 45"><defs><linearGradient id="wGrad" x1="0" y1="0" x2="0" y2="1"><stop offset="0" stop-color="#ffffff"></stop><stop offset=".4" stop-color="#eef1f6"></stop><stop offset=".78" stop-color="#d2d9e3"></stop><stop offset="1" stop-color="#a6b0be"></stop></linearGradient><linearGradient id="wGloss" x1="0" y1="0" x2="0" y2="1"><stop offset="0" stop-color="#ffffff" stop-opacity=".9"></stop><stop offset=".45" stop-color="#ffffff" stop-opacity="0"></stop></linearGradient><linearGradient id="bGrad" x1="0" y1="0" x2="0" y2="1"><stop offset="0" stop-color="#7c8492"></stop><stop offset=".4" stop-color="#3b414d"></stop><stop offset=".78" stop-color="#1d212a"></stop><stop offset="1" stop-color="#080a0e"></stop></linearGradient></defs><g fill-rule="evenodd" stroke="#000" stroke-linecap="round" stroke-linejoin="round" stroke-width="1.5"><path stroke-linecap="butt" d="M9 39h27v-3H9zm3.5-7 1.5-2.5h17l1.5 2.5zm-.5 4v-4h21v4z"></path><path stroke-linecap="butt" stroke-linejoin="miter" d="M14 29.5v-13h17v13z"></path><path stroke-linecap="butt" d="M14 16.5 11 14h23l-3 2.5zM11 14V9h4v2h5V9h5v2h5V9h4v5z"></path><path fill="none" stroke="#ececec" stroke-linejoin="miter" stroke-width="1" d="M12 35.5h21m-20-4h19m-18-2h17m-17-13h17M11 14h23"></path></g></svg>