<svg fill="url(#bGrad)" xmlns="http://www.w3.org/2000/svg" viewBox="0 0 45 45"><defs><linearGradient id="wGrad" x1="0" y1="0" x2="0" y2="1"><stop offset="0" stop-color="#ffffff"></stop><stop offset=".4" stop-color="#eef1f6"></stop><stop offset=".78" stop-color="#d2d9e3"></stop><stop offset="1" stop-color="#a6b0be"></stop></linearGradient><linearGradient id="wGloss" x1="0" y1="0" x2="0" y2="1"><stop offset="0" stop-color="#ffffff" stop-opacity=".9"></stop><stop offset=".45" stop-color="#ffffff" stop-opacity="0"></stop></linearGradient><linearGradient id="bGrad" x1="0" y1="0" x2="0" y2="1"><stop offset="0" stop-color="#7c8492"></stop><stop offset=".4" stop-color="#3b414d"></stop><stop offset=".78" stop-color="#1d212a"></stop><stop offset="1" stop-color="#080a0e"></stop></linearGradient></defs><g fill="none" fill-rule="evenodd" stroke="#000" stroke-linecap="round" stroke-linejoin="round" stroke-width="1.5"><path fill="url(#bGrad)" d="M22 10c10.5 1 16.5 8 16 29H15c0-9 10-6.5 8-21"></path><path fill="url(#bGrad)" d="M24 18c.38 2.91-5.55 7.37-8 9-3 2-2.82 4.34-5 4-1.04-.94 1.41-3.04 0-3-1 0 .19 1.23-1 2-1 0-4 1-4-4 0-2 6-12 6-12s1.89-1.9 2-3.5c-.73-1-.5-2-.5-3 1-1 3 2.5 3 2.5h2s.78-2 2.5-3c1 0 1 3 1 3"></path><path fill="#ececec" stroke="#ececec" d="M9.5 25.5a.5.5 0 1 1-1 0 .5.5 0 1 1 1 0m5.43-9.75a.5 1.5 30 1 1-.86-.5.5 1.5 30 1 1 .86.5"></path><path fill="#ececec" stroke="none" d="m24.55 10.4-.45 1.45.5.15c3.15 1 5.65 2.49 7.9 6.75S35.75 29.06 35.25 39l-.05.5h2.25l.05-.5c.5-10.06-.88-16.85-3.25-21.34s-5.79-6.64-9.19-7.16z"></path></g></svg>