<svg fill="url(#bGrad)" xmlns="http://www.w3.org/2000/svg" viewBox="0 0 45 45"><defs><linearGradient id="wGrad" x1="0" y1="0" x2="0" y2="1"><stop offset="0" stop-color="#ffffff"></stop><stop offset=".4" stop-color="#eef1f6"></stop><stop offset=".78" stop-color="#d2d9e3"></stop><stop offset="1" stop-color="#a6b0be"></stop></linearGradient><linearGradient id="wGloss" x1="0" y1="0" x2="0" y2="1"><stop offset="0" stop-color="#ffffff" stop-opacity=".9"></stop><stop offset=".45" stop-color="#ffffff" stop-opacity="0"></stop></linearGradient><linearGradient id="bGrad" x1="0" y1="0" x2="0" y2="1"><stop offset="0" stop-color="#7c8492"></stop><stop offset=".4" stop-color="#3b414d"></stop><stop offset=".78" stop-color="#1d212a"></stop><stop offset="1" stop-color="#080a0e"></stop></linearGradient></defs><g fill-rule="evenodd" stroke="#000" stroke-linecap="round" stroke-linejoin="round" stroke-width="1.5"><g stroke="none"><circle cx="6" cy="12" r="2.75"></circle><circle cx="14" cy="9" r="2.75"></circle><circle cx="22.5" cy="8" r="2.75"></circle><circle cx="31" cy="9" r="2.75"></circle><circle cx="39" cy="12" r="2.75"></circle></g><path stroke-linecap="butt" d="M9 26c8.5-1.5 21-1.5 27 0l2.5-12.5L31 25l-.3-14.1-5.2 13.6-3-14.5-3 14.5-5.2-13.6L14 25 6.5 13.5z"></path><path stroke-linecap="butt" d="M9 26c0 2 1.5 2 2.5 4 1 1.5 1 1 .5 3.5-1.5 1-1.5 2.5-1.5 2.5-1.5 1.5.5 2.5.5 2.5 6.5 1 16.5 1 23 0 0 0 1.5-1 0-2.5 0 0 .5-1.5-1-2.5-.5-2.5-.5-2 .5-3.5 1-2 2.5-2 2.5-4-8.5-1.5-18.5-1.5-27 0z"></path><path fill="none" stroke-linecap="butt" d="M11 38.5a35 35 1 0 0 23 0"></path><path fill="none" stroke="#ececec" d="M11 29a35 35 1 0 1 23 0m-21.5 2.5h20m-21 3a35 35 1 0 0 22 0m-23 3a35 35 1 0 0 24 0"></path></g></svg>