<svg xmlns="http://www.w3.org/2000/svg" viewBox="0 0 45 45"><defs><linearGradient id="wGrad" x1="0" y1="0" x2="0" y2="1"><stop offset="0" stop-color="#ffffff"></stop><stop offset=".4" stop-color="#eef1f6"></stop><stop offset=".78" stop-color="#d2d9e3"></stop><stop offset="1" stop-color="#a6b0be"></stop></linearGradient><linearGradient id="wGloss" x1="0" y1="0" x2="0" y2="1"><stop offset="0" stop-color="#ffffff" stop-opacity=".9"></stop><stop offset=".45" stop-color="#ffffff" stop-opacity="0"></stop></linearGradient><linearGradient id="bGrad" x1="0" y1="0" x2="0" y2="1"><stop offset="0" stop-color="#7c8492"></stop><stop offset=".4" stop-color="#3b414d"></stop><stop offset=".78" stop-color="#1d212a"></stop><stop offset="1" stop-color="#080a0e"></stop></linearGradient></defs><g fill="url(#wGrad)" fill-rule="evenodd" stroke="#000" stroke-linecap="round" stroke-linejoin="round" stroke-width="1.5"><path d="M8 12a2 2 0 1 1-4 0 2 2 0 1 1 4 0m16.5-4.5a2 2 0 1 1-4 0 2 2 0 1 1 4 0M41 12a2 2 0 1 1-4 0 2 2 0 1 1 4 0M16 8.5a2 2 0 1 1-4 0 2 2 0 1 1 4 0M33 9a2 2 0 1 1-4 0 2 2 0 1 1 4 0"></path><path stroke-linecap="butt" d="M9 26c8.5-1.5 21-1.5 27 0l2-12-7 11V11l-5.5 13.5-3-15-3 15-5.5-14V25L7 14z"></path><path stroke-linecap="butt" d="M9 26c0 2 1.5 2 2.5 4 1 1.5 1 1 .5 3.5-1.5 1-1.5 2.5-1.5 2.5-1.5 1.5.5 2.5.5 2.5 6.5 1 16.5 1 23 0 0 0 1.5-1 0-2.5 0 0 .5-1.5-1-2.5-.5-2.5-.5-2 .5-3.5 1-2 2.5-2 2.5-4-8.5-1.5-18.5-1.5-27 0z"></path><path fill="none" d="M11.5 30c3.5-1 18.5-1 22 0M12 33.5c6-1 15-1 21 0"></path></g></svg>